PathFileType	4	(X/Y/Z)	S1_rest_fast_left.trc
DataRate	CameraRate	NumFrames	NumMarkers	Units	OrigDataRate	OrigDataStartFrame	OrigNumFrames
250.00	250.00	21	18	mm	250.00	8927	23803
Frame#	Time	c7	r_should	l_should	clavicle	r_upa	r_elb_l	r_elb_m	r_low	r_wri_l	r_wri_m	r_met	l_upa	l_elb_l	l_elb_m	l_low	l_wri_l	l_wri_m	l_met
	X1	Y1	Z1	X2	Y2	Z2	X3	Y3	Z3	X4	Y4	Z4	X5	Y5	Z5	X6	Y6	Z6	X7	Y7	Z7	X8	Y8	Z8	X9	Y9	Z9	X10	Y10	Z10	X11	Y11	Z11	X12	Y12	Z12	X13	Y13	Z13	X14	Y14	Z14	X15	Y15	Z15	X16	Y16	Z16	X17	Y17	Z17	X18	Y18	Z18
8927	35.70400	412.35605	1421.44775	56.39291	476.20578	1354.67310	241.76572	463.77927	1358.20508	-132.37544	546.89996	1296.41333	48.25228	449.04852	1158.90186	312.72849	462.66370	1060.43408	328.54324	393.41907	1034.52258	260.17569	444.83484	928.35284	344.10565	542.59802	862.01288	310.33923	477.98138	832.50854	327.61383	591.82727	783.87457	327.07797	481.81897	1132.02405	-157.18138	495.14459	1049.05920	-171.16754	453.43954	1022.18152	-77.28943	468.20346	899.62451	-149.39091	535.67590	817.33319	-176.46062	496.52368	802.57690	-118.53860	514.82733	746.08929	-199.44563
8928	35.70800	412.35358	1421.45959	56.40834	476.15964	1354.64197	241.78346	463.81412	1358.22131	-132.35315	546.91852	1296.29590	48.41709	448.99667	1158.85815	312.71542	462.60971	1060.38782	328.51685	393.37045	1034.49878	260.16241	444.76987	928.31415	344.07550	542.53741	861.96979	310.31116	477.91144	832.47186	327.58240	591.76410	783.83148	327.03955	481.86926	1132.05334	-157.21881	495.22046	1049.09033	-171.19240	453.39636	1022.19843	-77.34391	468.38605	899.63904	-149.44038	535.99518	817.40686	-176.35410	496.70831	802.61804	-118.49964	515.21234	746.19897	-199.39503
8929	35.71200	412.35202	1421.46838	56.42876	476.11804	1354.60901	241.79854	463.85638	1358.23206	-132.32457	546.79675	1296.42480	48.20925	448.94061	1158.82043	312.70511	462.54221	1060.33423	328.48270	393.31964	1034.47961	260.14136	444.70172	928.27441	344.03860	542.47461	861.93066	310.28467	477.84412	832.43335	327.54510	591.69946	783.79108	327.00418	481.90363	1132.08472	-157.26620	495.28577	1049.11548	-171.22427	453.33383	1022.21539	-77.41603	468.56674	899.65265	-149.48979	536.32422	817.48773	-176.24023	496.88367	802.65991	-118.47664	515.60339	746.30762	-199.33252
8930	35.71600	412.34827	1421.48169	56.44656	476.08179	1354.57751	241.81529	463.89523	1358.25256	-132.30209	546.63293	1296.60974	47.88896	448.89044	1158.78577	312.69489	462.53592	1060.31921	328.56100	393.26971	1034.44678	260.11319	444.63455	928.23602	344.00284	542.41016	861.89172	310.25153	477.77338	832.40308	327.50348	591.62793	783.74731	326.96426	481.92667	1132.11780	-157.31468	495.34134	1049.15039	-171.27284	453.24417	1022.23315	-77.50420	468.75485	899.66315	-149.54301	536.65961	817.56793	-176.11897	497.07187	802.71399	-118.45217	515.97083	746.42328	-199.26752
8931	35.72000	412.34714	1421.49902	56.46262	476.04462	1354.54675	241.82820	463.93610	1358.27051	-132.27660	546.78473	1296.30493	48.37403	448.83868	1158.75281	312.68924	462.54730	1060.31628	328.66708	393.22205	1034.41797	260.08414	444.56381	928.19623	343.96448	542.34418	861.85242	310.21423	477.71344	832.35791	327.46201	591.55957	783.70911	326.92499	481.93893	1132.13989	-157.37248	495.39261	1049.18555	-171.32103	453.09387	1022.24719	-77.61943	468.95010	899.67255	-149.60365	536.99902	817.64587	-175.99042	497.27411	802.77972	-118.42105	516.35071	746.54144	-199.19414
8932	35.72400	412.34961	1421.50452	56.47120	476.00427	1354.51550	241.84096	463.97968	1358.28284	-132.24605	546.80371	1296.20422	48.50968	448.77432	1158.70898	312.68921	462.39328	1060.23022	328.48273	393.16501	1034.39099	260.06122	444.49457	928.15674	343.93216	542.27448	861.81360	310.18268	477.64786	832.32166	327.42123	591.48932	783.67529	326.88879	481.93527	1132.16040	-157.44170	495.43216	1049.21667	-171.36200	452.89456	1022.25397	-77.75021	469.13998	899.68372	-149.67204	537.32654	817.72412	-175.86105	497.48224	802.84253	-118.38367	516.75226	746.65460	-199.11758
8933	35.72800	412.35794	1421.50635	56.48031	475.96671	1354.48584	241.85924	464.02609	1358.29443	-132.22047	546.78278	1296.15613	48.55718	448.71390	1158.67834	312.68628	462.35950	1060.21191	328.52219	393.11121	1034.36108	260.03198	444.42154	928.11389	343.89841	542.19977	861.77295	310.14914	477.57541	832.28894	327.37485	591.41614	783.64209	326.85028	481.92758	1132.18640	-157.50125	495.45374	1049.24475	-171.41182	452.67111	1022.26056	-77.89909	469.31808	899.69336	-149.74261	537.64154	817.80426	-175.73535	497.67734	802.91211	-118.36066	517.17682	746.76758	-199.03703
8934	35.73200	412.36514	1421.51208	56.48969	475.93091	1354.45288	241.87823	464.08032	1358.30750	-132.20055	546.75018	1296.12012	48.57331	448.65137	1158.63782	312.67636	462.41214	1060.23535	328.71799	393.05063	1034.33044	260.00031	444.34811	928.07233	343.86050	542.12842	861.72607	310.10538	477.49484	832.25928	327.32690	591.34528	783.60284	326.80817	481.91864	1132.21216	-157.57214	495.46265	1049.26929	-171.46764	452.44202	1022.26184	-78.03948	469.49075	899.69720	-149.80611	537.95911	817.88306	-175.61075	497.86411	802.99426	-118.33472	517.62067	746.88831	-198.96542
8935	35.73600	412.36914	1421.51733	56.49234	475.90103	1354.41309	241.88589	464.14365	1358.31519	-132.17857	546.71918	1296.07971	48.59210	448.59125	1158.59729	312.67233	462.31934	1060.18420	328.65320	392.99963	1034.29480	259.96646	444.29099	928.05731	343.82928	542.05450	861.68469	310.06491	477.42392	832.21771	327.27484	591.27380	783.56256	326.76227	481.89908	1132.23596	-157.64670	495.44238	1049.28735	-171.52762	452.25958	1022.25720	-78.16169	469.65790	899.69110	-149.86780	538.28467	817.97205	-175.47955	498.06189	803.07251	-118.30480	518.06470	747.00604	-198.89671
8936	35.74000	412.38333	1421.51489	56.50093	475.88055	1354.37305	241.89966	464.20929	1358.32031	-132.15462	546.69604	1296.02832	48.60165	448.53122	1158.56934	312.67694	462.12634	1060.07495	328.42349	392.94220	1034.25598	259.92853	444.24698	928.07129	343.80542	541.98254	861.64282	310.02368	477.35458	832.17578	327.22415	591.19659	783.52075	326.72156	481.87457	1132.25891	-157.72639	495.39474	1049.30603	-171.60507	452.08868	1022.26257	-78.29066	469.82214	899.67969	-149.91924	538.61401	818.07318	-175.34238	498.27780	803.15448	-118.26166	518.51349	747.12238	-198.80862
8937	35.74400	412.40219	1421.51208	56.50168	475.86053	1354.33606	241.91585	464.27695	1358.32495	-132.13318	546.67975	1295.97974	48.62624	448.45734	1158.52197	312.67581	462.07565	1060.03894	328.44989	392.88187	1034.22473	259.89651	444.18185	928.04742	343.76675	541.90424	861.60156	309.98380	477.27847	832.14258	327.17389	591.11292	783.47467	326.67230	481.84174	1132.28149	-157.81187	495.31937	1049.32227	-171.69824	451.89938	1022.27393	-78.42599	469.97464	899.66742	-149.95728	538.94769	818.18463	-175.20326	498.50824	803.24463	-118.19430	518.97540	747.24268	-198.69641
8938	35.74800	412.43143	1421.51843	56.50849	475.83859	1354.30347	241.92625	464.34988	1358.32996	-132.11362	546.66388	1295.93750	48.65735	448.38397	1158.48560	312.66946	462.12204	1060.06104	328.63879	392.81775	1034.19141	259.86136	444.10965	928.01715	343.72757	541.82910	861.56677	309.93939	477.20087	832.10992	327.12296	591.03064	783.43341	326.62033	481.79745	1132.30579	-157.90326	495.21997	1049.35046	-171.81763	451.71558	1022.27472	-78.54125	470.12305	899.65210	-149.98848	539.28534	818.30890	-175.05983	498.74991	803.33905	-118.11463	519.45856	747.38867	-198.56346
8939	35.75200	412.46371	1421.52515	56.51410	475.82413	1354.27209	241.94540	464.42432	1358.33411	-132.09265	546.64862	1295.89783	48.67516	448.32578	1158.45398	312.66040	462.02603	1060.01562	328.57065	392.75024	1034.17224	259.84003	444.04099	927.98682	343.68442	541.76025	861.53674	309.89682	477.12112	832.07770	327.06964	590.94769	783.39789	326.56799	481.74481	1132.33179	-157.99940	495.09946	1049.38220	-171.94902	451.48215	1022.29248	-78.67864	470.26770	899.63434	-150.00883	539.62805	818.44208	-174.91203	498.97867	803.40729	-118.03590	519.93945	747.54199	-198.40337
8940	35.75600	412.50061	1421.53613	56.51788	475.80777	1354.24231	241.96509	464.49945	1358.34058	-132.05989	546.62915	1295.86523	48.67437	448.26355	1158.41724	312.64841	461.88474	1059.95679	328.43939	392.68756	1034.15149	259.80835	443.97174	927.95825	343.63647	541.68921	861.50488	309.84900	477.03696	832.05145	327.00961	590.86749	783.35944	326.51871	481.67163	1132.35950	-158.10225	494.96487	1049.41626	-172.09450	451.17978	1022.31146	-78.86554	470.40634	899.61713	-150.03328	539.97620	818.57928	-174.76482	499.21774	803.45837	-117.94501	520.41272	747.70605	-198.23932
8941	35.76000	412.53525	1421.55359	56.52219	475.79797	1354.21521	241.98012	464.56897	1358.34729	-132.03467	546.61499	1295.82361	48.67063	448.19751	1158.38367	312.63669	461.91940	1059.97803	328.58667	392.61771	1034.12866	259.77264	443.89810	927.92932	343.58804	541.61554	861.47614	309.80099	476.95367	832.03027	326.94614	590.78723	783.32959	326.46268	481.58084	1132.38562	-158.20476	494.81784	1049.46008	-172.24835	450.81165	1022.33508	-79.07372	470.53342	899.60425	-150.06558	540.32684	818.72699	-174.62004	499.46597	803.49670	-117.84196	520.89880	747.90454	-198.09492
8942	35.76400	412.58078	1421.56726	56.53433	475.78860	1354.18933	241.99586	464.63239	1358.34631	-132.01062	546.61365	1295.79431	48.68951	448.13934	1158.35754	312.63574	461.88013	1059.95862	328.60049	392.55524	1034.10754	259.72656	443.81879	927.89532	343.53894	541.53961	861.44983	309.76077	476.87344	831.99585	326.88815	590.70081	783.29883	326.40613	481.48172	1132.41357	-158.31218	494.68204	1049.50293	-172.38026	450.47809	1022.34265	-79.27234	470.64816	899.59540	-150.10870	540.68256	818.87054	-174.47134	499.73505	803.46075	-117.67032	521.41150	748.12067	-197.96873
8943	35.76800	412.62354	1421.58289	56.54822	475.78204	1354.16003	242.01387	464.68600	1358.33887	-131.97968	546.61475	1295.76184	48.71617	448.06964	1158.31567	312.61761	461.82047	1059.92651	328.57980	392.49350	1034.08105	259.68536	443.73749	927.85876	343.48651	541.46313	861.42181	309.71710	476.78583	831.96423	326.82196	590.61493	783.26233	326.35318	481.37454	1132.44214	-158.42181	494.55377	1049.53491	-172.49980	450.14896	1022.35187	-79.48697	470.76016	899.58606	-150.16492	541.05042	819.01898	-174.31396	500.03891	803.33575	-117.39880	521.94696	748.32489	-197.86182
8944	35.77200	412.67252	1421.59412	56.55509	475.78253	1354.13196	242.03160	464.72784	1358.33752	-131.94699	546.60736	1295.71948	48.72806	448.00912	1158.27612	312.59644	461.69272	1059.87061	328.45197	392.42743	1034.05505	259.64444	443.64896	927.82611	343.43701	541.37982	861.38867	309.67050	476.68817	831.93262	326.75482	590.52380	783.22101	326.29556	481.26218	1132.48242	-158.53629	494.42282	1049.56372	-172.60805	449.79303	1022.35437	-79.72009	470.87222	899.57709	-150.23720	541.42499	819.16785	-174.14751	500.32239	803.38708	-117.24744	522.47626	748.52679	-197.74582
8945	35.77600	412.71970	1421.60168	56.56445	475.78665	1354.10059	242.04945	464.76855	1358.33118	-131.90892	546.59644	1295.67090	48.72741	447.95895	1158.24658	312.59109	461.49921	1059.76819	328.20328	392.36832	1034.03101	259.60321	443.55600	927.79279	343.38623	541.29150	861.35004	309.62216	476.80576	831.81311	326.36740	590.43390	783.17950	326.23965	481.14963	1132.52710	-158.65668	494.28494	1049.59668	-172.71878	449.39053	1022.36115	-79.98666	470.98828	899.56525	-150.32181	541.80109	819.32074	-173.98343	500.62167	803.48438	-117.12559	523.00031	748.72003	-197.60376
8946	35.78000	412.76593	1421.61182	56.57991	475.79480	1354.06445	242.06305	464.81253	1358.32666	-131.88455	546.59186	1295.62109	48.74190	447.90936	1158.22375	312.58676	461.39590	1059.71045	328.11627	392.30145	1034.01501	259.55835	443.46170	927.76062	343.33331	541.20001	861.30688	309.56952	477.20093	831.57379	325.57401	590.34576	783.13580	326.18039	481.02850	1132.56934	-158.78355	494.12817	1049.63403	-172.84714	448.95108	1022.37317	-80.26922	471.10660	899.55011	-150.41872	542.18390	819.47650	-173.81915	500.93561	803.60645	-117.01205	523.54651	748.90881	-197.44249
8947	35.78400	412.81943	1421.61731	56.60112	475.81284	1354.03223	242.07535	464.85544	1358.31885	-131.84702	546.58636	1295.56018	48.74841	447.86569	1158.19788	312.58017	461.30783	1059.67493	328.06735	392.23700	1034.00195	259.52139	443.36737	927.72711	343.28387	541.09766	861.26208	309.50964	477.22208	831.48364	325.32181	590.25085	783.09711	326.12537	480.88898	1132.61536	-158.92656	493.94348	1049.67468	-172.98743	448.57352	1022.36963	-80.54048	471.22723	899.53912	-150.53230	542.58167	819.64368	-173.65685	501.26248	803.73175	-116.89369	524.11438	749.11298	-197.27988
